<?xml version="1.0" encoding="utf-8"?>
<!-- Generator: Adobe Illustrator 24.1.1, SVG Export Plug-In . SVG Version: 6.00 Build 0)  -->
<svg version="1.1" id="Layer_1" xmlns="http://www.w3.org/2000/svg" xmlns:xlink="http://www.w3.org/1999/xlink" x="0px" y="0px"
	 viewBox="0 0 583 229" style="enable-background:new 0 0 583 229;" xml:space="preserve">
<style type="text/css">
	.st0{fill:#F7991C;}
	.st1{fill:#2D2D2D;}
	.st2{fill-rule:evenodd;clip-rule:evenodd;fill:#2D2D2D;}
</style>
<g>
	<polygon class="st0" points="491.12,89.79 575.18,37.26 575.18,51.45 491.12,103.98 407.06,51.45 407.06,37.26 	"/>
	<path class="st0" d="M491.09,24.12c-18.92,0-35.58,9.64-45.35,24.28l0.08,0.01c0.66-0.6,1.33-1.19,2.02-1.76
		c23.59-19.55,57.64-15.26,76.25,9.53l12.38-7.73h0.01C526.71,33.78,510.03,24.12,491.09,24.12"/>
	<path class="st0" d="M491.09,48.23c-10.26,0-19.32,5.09-24.82,12.87c4.44-3.12,9.59-4.91,15.08-4.91c9.03,0,17.14,4.83,22.7,12.5
		L516,61.23h0.01C510.52,53.37,501.41,48.23,491.09,48.23"/>
	<path class="st0" d="M434.28,27.05c34.61-27.4,83.59-20.06,109.68,16.32l0.17,0.27l12.81-7.98v0C542.91,14.19,518.66,0,491.1,0
		c-27.18,0-51.65,14.05-65.81,35.61C427.88,32.87,431.25,29.44,434.28,27.05"/>
</g>
<path class="st1" d="M83.37,133.18v-50.1h16.45v49.49c0,12.02,9.93,15.12,15.78,15.12c12.45,0,16.53-7.34,16.53-11.53V83.08h16.45
	v77.77H139l-6.28-8.67c-4.49,5.38-11.81,10.4-22.73,10.4C94.29,162.58,83.37,152.02,83.37,133.18z"/>
<path class="st1" d="M270.21,55.36v105.43h9.34l5.99-8.67c4.38,5.38,11.83,10.47,22.63,10.47c14.45,0,26.87-8.97,26.87-28.56V109.8
	c0-19.59-12.26-28.56-27.45-28.56c-10.51,0-17.67,4.79-21.32,9.42V55.36H270.21z M303.55,147.63c-10.17,0-17.53-4.9-17.28-15.42l0,0
	V110.9c0-8.49,6.62-14.71,17.43-14.71c7.59,0,15.28,5.53,15.28,14.81v21.83C318.98,142.1,311.29,147.63,303.55,147.63z"/>
<path class="st1" d="M208.68,55.42v35.29c-3.65-4.64-10.8-9.42-21.32-9.42c-15.18,0-27.45,8.97-27.45,28.56v24.23
	c0,19.59,12.41,28.56,26.87,28.56c10.81,0,18.25-5.08,22.63-10.47l5.99,8.67h9.34V55.42H208.68z M175.97,132.88v-21.83
	c0-9.27,7.69-14.81,15.28-14.81c10.81,0,17.43,6.22,17.43,14.71v21.31l0,0c0.26,10.52-7.11,15.42-17.28,15.42
	C183.66,147.69,175.97,142.15,175.97,132.88z"/>
<path class="st1" d="M346.2,55.42h16.45v105.43H346.2V55.42z"/>
<g>
	<rect x="239.47" y="83.08" class="st1" width="16.45" height="77.77"/>
	<circle class="st1" cx="247.7" cy="64.35" r="9.36"/>
</g>
<g>
	<path class="st1" d="M407.92,147.69c-11.22,0-16.75-5.83-16.75-13.91v-6.43h48.75v-17.5c0-17.95-12.56-28.56-32-28.56
		c-20.19,0-33.2,11.22-33.2,28.86v23.93c0,17.95,13.01,28.56,33.2,28.56c15.13,0,25.99-6.09,30.54-16.51l-11.94-7.37
		C422.28,144.72,416.4,147.69,407.92,147.69z M391.17,109.85c0-8.08,5.53-13.61,16.15-13.61c10.62,0,16.15,5.53,16.15,13.61v4.93
		h-32.3V109.85z"/>
</g>
<path class="st1" d="M40.99,81.29c-15.96,0-26.31,6.43-30.33,16.11l12.85,8c5.37-8.55,10.5-9.16,17.47-9.16
	c10.02,0,14.66,4.79,14.66,12.41v6.08l-13.79,0.02c-10.06,0-34.97,3.42-34.97,25.01c0,15.25,11.52,22.88,25.58,22.88
	c11.07,0,19.29-5.08,23.78-10.47l6.28,8.67h9.57v-53.24C72.09,92.35,61.92,81.29,40.99,81.29z M55.64,135.95
	c-0.13,1.19-0.15,2.69-1.81,4.77c-2.51,3.57-8.78,6.97-16.22,6.97c-7.78,0-13.46-3.14-13.46-9.72c0-9.32,15.13-11.35,24.42-11.72
	h7.08V135.95z"/>
<path class="st1" d="M337.94,108.97"/>
<g>
	<path class="st2" d="M384.32,220.18c-8.03,5.76-19.65,8.82-29.67,8.82c-14.03,0-26.68-5.04-36.24-13.43
		c-0.75-0.66-0.08-1.57,0.82-1.05c10.33,5.84,23.08,9.35,36.26,9.35c8.89,0,18.67-1.79,27.66-5.5
		C384.5,217.81,385.65,219.23,384.32,220.18z"/>
	<path class="st2" d="M387.66,216.49c-1.03-1.27-6.79-0.6-9.38-0.3c-0.78,0.09-0.9-0.57-0.19-1.05c4.59-3.14,12.11-2.23,12.99-1.19
		c0.87,1.06-0.23,8.39-4.54,11.89c-0.66,0.54-1.29,0.25-0.99-0.46C386.51,223.02,388.69,217.76,387.66,216.49z"/>
	<path class="st2" d="M378.47,192.99v-3.04c0-0.46,0.36-0.77,0.79-0.77h14.04c0.47,0,0.81,0.31,0.81,0.77v2.6
		c0,0.44-0.38,1.02-1.06,1.92l-7.27,10.1c2.71-0.06,5.56,0.33,8.01,1.67c0.56,0.3,0.7,0.75,0.75,1.19v3.26c0,0.44-0.5,0.96-1.03,0.7
		c-4.33-2.21-10.06-2.44-14.84,0.02c-0.48,0.26-1-0.25-1-0.7v-3.09c0-0.5,0.02-1.34,0.53-2.09l8.43-11.75h-7.34
		C378.83,193.76,378.47,193.44,378.47,192.99z"/>
	<path class="st2" d="M327.24,212.01h-4.28c-0.4-0.03-0.72-0.33-0.76-0.7v-21.31c0-0.42,0.37-0.78,0.83-0.78h3.97
		c0.42,0.03,0.76,0.33,0.79,0.73v2.78h0.08c1.04-2.69,2.98-3.94,5.62-3.94c2.68,0,4.35,1.25,5.55,3.94c1.03-2.69,3.39-3.94,5.9-3.94
		c1.8,0,3.76,0.71,4.96,2.33c1.35,1.79,1.07,4.4,1.07,6.68l-0.01,13.45c0,0.43-0.37,0.77-0.83,0.77h-4.27
		c-0.43-0.03-0.76-0.35-0.76-0.77l0-11.3c0-0.89,0.08-3.14-0.12-3.99c-0.32-1.44-1.28-1.84-2.52-1.84c-1.03,0-2.11,0.67-2.54,1.75
		c-0.44,1.08-0.4,2.87-0.4,4.08v11.3c0,0.43-0.36,0.77-0.82,0.77h-4.28c-0.42-0.03-0.76-0.35-0.76-0.77v-11.3
		c0-2.37,0.39-5.88-2.64-5.88c-3.08,0-2.95,3.41-2.95,5.88v11.3C328.06,211.67,327.69,212.01,327.24,212.01z"/>
	<path class="st2" d="M406.21,188.78c6.34,0,9.78,5.28,9.78,12.02c0,6.49-3.8,11.65-9.78,11.65c-6.22,0-9.61-5.29-9.61-11.89
		C396.6,193.93,400.03,188.78,406.21,188.78z M406.25,193.13c-3.15,0-3.36,4.17-3.36,6.77c0,2.6-0.03,8.17,3.32,8.17
		c3.31,0,3.46-4.48,3.46-7.22c0-1.8-0.08-3.95-0.63-5.66C408.57,193.71,407.61,193.13,406.25,193.13z"/>
	<path class="st2" d="M424.21,212.01h-4.25c-0.43-0.03-0.77-0.35-0.77-0.77l-0.01-21.32c0.03-0.38,0.4-0.7,0.82-0.7h3.95
		c0.38,0.02,0.69,0.28,0.76,0.61v3.25h0.08c1.2-2.91,2.87-4.3,5.83-4.3c1.91,0,3.79,0.67,4.98,2.5c1.12,1.71,1.12,4.58,1.12,6.65
		v13.41c-0.06,0.37-0.4,0.66-0.82,0.66h-4.29c-0.39-0.03-0.71-0.3-0.76-0.66v-11.58c0-2.34,0.28-5.74-2.67-5.74
		c-1.03,0-1.99,0.67-2.48,1.71c-0.6,1.29-0.67,2.6-0.67,4.03v11.48C425.04,211.67,424.67,212.01,424.21,212.01z"/>
	<path class="st2" d="M367.27,201.83c0,1.61,0.04,2.96-0.8,4.4c-0.68,1.17-1.76,1.89-2.96,1.89c-1.64,0-2.59-1.22-2.59-3.02
		c0-3.54,3.26-4.18,6.35-4.18V201.83z M371.58,211.95c-0.28,0.25-0.69,0.26-1.01,0.1c-1.41-1.15-1.67-1.68-2.44-2.77
		c-2.34,2.32-4,3.02-7.05,3.02c-3.59,0-6.39-2.16-6.39-6.47c0-3.37,1.87-5.67,4.55-6.79c2.33-0.98,5.56-1.17,8.04-1.43v-0.54
		c0-0.99,0.08-2.16-0.52-3.01c-0.51-0.77-1.52-1.08-2.4-1.08c-1.63,0-3.08,0.81-3.43,2.49c-0.08,0.38-0.36,0.75-0.75,0.77
		l-4.14-0.43c-0.35-0.08-0.74-0.35-0.64-0.86c0.95-4.89,5.48-6.36,9.55-6.36c2.08,0,4.8,0.55,6.44,2.07
		c2.07,1.89,1.88,4.39,1.88,7.14v6.47c0,1.94,0.83,2.79,1.61,3.84c0.27,0.38,0.33,0.83-0.01,1.1c-0.88,0.71-2.43,2.02-3.29,2.76
		L371.58,211.95z"/>
	<path class="st2" d="M311.25,201.83c0,1.61,0.04,2.96-0.8,4.4c-0.68,1.17-1.76,1.89-2.96,1.89c-1.64,0-2.6-1.22-2.6-3.02
		c0-3.54,3.25-4.18,6.35-4.18V201.83z M315.56,211.95c-0.28,0.25-0.69,0.26-1.01,0.1c-1.42-1.15-1.68-1.68-2.45-2.77
		c-2.34,2.32-4,3.02-7.04,3.02c-3.6,0-6.39-2.16-6.39-6.47c0-3.37,1.87-5.67,4.56-6.79c2.32-0.98,5.55-1.17,8.03-1.43v-0.54
		c0-0.99,0.08-2.16-0.52-3.01c-0.52-0.77-1.52-1.08-2.41-1.08c-1.62,0-3.07,0.81-3.43,2.49c-0.08,0.38-0.35,0.75-0.74,0.77
		l-4.14-0.43c-0.35-0.08-0.75-0.35-0.64-0.86c0.95-4.89,5.49-6.36,9.55-6.36c2.09,0,4.8,0.55,6.44,2.07
		c2.08,1.89,1.87,4.39,1.87,7.14v6.47c0,1.94,0.84,2.79,1.61,3.84c0.27,0.38,0.33,0.83-0.02,1.1c-0.87,0.71-2.42,2.02-3.27,2.76
		L315.56,211.95z"/>
</g>
<g>
	<path class="st1" d="M10.5,189.33h3.02v14.03c0,3.92,1.31,5.72,4.54,5.72c1.88,0,3.43-0.86,4.58-2.2c1.55-1.81,1.84-3.74,1.84-7.06
		v-10.5h2.98v21.99h-1.88c-0.33-1.16-0.7-2.41-1.02-3.57c-1.63,2.71-4.21,4.17-7.03,4.17c-4.74,0-7.03-2.88-7.03-8V189.33z"/>
	<path class="st1" d="M32.9,189.38h1.76l1.14,3.53c1.68-2.8,4.33-4.17,7.15-4.17c4.7,0,7.11,2.97,7.11,8.05v14.54h-3.02V197.3
		c0-3.87-1.39-5.68-4.66-5.68c-4.74,0-6.5,4-6.5,8.95v10.76H32.9V189.38z"/>
	<path class="st1" d="M68.12,207.92c-1.27,2.28-3.92,3.92-7.23,3.92c-4.25,0-7.23-2.41-7.23-6.67c0-7.19,7.76-7.1,14.35-7.36v-1.38
		c0-3.31-1.59-5.12-5.03-5.12c-3.27,0-5.07,1.42-5.39,3.91c-0.98-0.09-1.92-0.13-2.86-0.17c0.53-4.22,3.64-6.33,8.34-6.33
		c5.15,0,7.93,2.63,7.93,8.35v14.24h-1.96L68.12,207.92z M68,200.26c-7.68,0.26-11.28,0.6-11.28,4.86c0,2.58,1.59,4.09,4.45,4.09
		c4.62,0,6.83-3.27,6.83-7.01V200.26z"/>
	<path class="st1" d="M101.15,205.04c-0.65,4.22-3.96,6.88-8.62,6.88c-6.09,0-9.56-4.73-9.56-11.45c0-6.93,3.68-11.75,9.48-11.75
		c6.13,0,9.11,4.82,9.11,10.8c0,0.52-0.04,1.08-0.04,1.64H85.98c0.08,4.43,2.29,8.13,6.54,8.13c3.31,0,5.11-1.68,5.68-4.26H101.15z
		 M98.53,198.63c-0.04-4.13-1.96-7.31-6.09-7.31c-3.88,0-6.21,2.97-6.42,7.31H98.53z"/>
	<path class="st1" d="M131.71,211.32v-14.29c0-3.87-1.23-5.51-4.21-5.51c-2.98,0-5.84,2.84-5.84,6.67v13.12h-2.98v-14.29
		c0-3.74-1.27-5.51-4.21-5.51c-3.07,0-5.84,2.93-5.84,7.66v12.13h-3.02v-21.95h1.76l1.19,3.49c1.51-2.58,3.76-4.13,6.46-4.13
		c3.31,0,5.27,1.64,6.13,4.3c1.51-2.67,3.88-4.3,6.95-4.3c4.41,0,6.62,2.75,6.62,7.66v14.93H131.71z"/>
	<path class="st1" d="M139.85,189.38h1.96l0.94,3.31c1.51-2.5,4.01-3.96,6.91-3.96c6.09,0,8.91,5.21,8.91,11.49
		c0,6.67-3.15,11.7-9.11,11.7c-2.62,0-5.11-1.16-6.62-3.57v11.45h-2.98V189.38z M149.16,209.17c4.13,0,6.29-3.53,6.29-8.91
		c0-5.51-2.37-8.73-6.17-8.73c-4.29,0-6.54,3.7-6.54,8.35C142.75,205.38,144.5,209.17,149.16,209.17z"/>
	<path class="st1" d="M162.77,189.38h1.68l1.23,3.79c1.31-2.71,3.76-4.13,6.34-4.13c0.65,0,1.23,0.04,1.88,0.17
		c-0.08,0.99-0.16,1.98-0.25,3.01c-0.57-0.13-1.19-0.17-1.76-0.17c-4.41,0-6.13,3.7-6.13,8.09v11.19h-2.98V189.38z"/>
	<path class="st1" d="M193.3,205.04c-0.65,4.22-3.96,6.88-8.62,6.88c-6.09,0-9.56-4.73-9.56-11.45c0-6.93,3.68-11.75,9.48-11.75
		c6.13,0,9.11,4.82,9.11,10.8c0,0.52-0.04,1.08-0.04,1.64h-15.53c0.08,4.43,2.29,8.13,6.54,8.13c3.31,0,5.11-1.68,5.68-4.26H193.3z
		 M190.68,198.63c-0.04-4.13-1.96-7.31-6.09-7.31c-3.88,0-6.21,2.97-6.42,7.31H190.68z"/>
	<path class="st1" d="M199.22,204.78c0.37,3.1,2.62,4.52,6.01,4.52c3.43,0,5.31-1.42,5.31-3.83c0-2.15-1.43-3.36-4.58-3.83
		c-4.78-0.69-9.03-1.59-9.03-6.45c0-4.17,3.72-6.46,7.97-6.46c5.15,0,7.89,2.88,8.17,6.54l-2.78,0.04
		c-0.37-2.32-1.96-3.96-5.31-3.96c-3.56,0-5.11,1.59-5.11,3.57c0,2.67,1.23,2.93,6.5,3.87c4.86,0.73,7.19,2.71,7.19,6.54
		c0,4.13-3.35,6.58-8.34,6.58c-4.86,0-8.71-2.37-8.95-7.14H199.22z"/>
	<path class="st1" d="M230.57,207.92c-1.27,2.28-3.92,3.92-7.23,3.92c-4.25,0-7.23-2.41-7.23-6.67c0-7.19,7.76-7.1,14.35-7.36v-1.38
		c0-3.31-1.59-5.12-5.03-5.12c-3.27,0-5.07,1.42-5.39,3.91c-0.98-0.09-1.92-0.13-2.86-0.17c0.53-4.22,3.64-6.33,8.34-6.33
		c5.15,0,7.93,2.63,7.93,8.35v14.24h-1.96L230.57,207.92z M230.45,200.26c-7.68,0.26-11.28,0.6-11.28,4.86
		c0,2.58,1.59,4.09,4.45,4.09c4.62,0,6.83-3.27,6.83-7.01V200.26z"/>
	<path class="st1" d="M262.77,211.32l-0.82-3.31c-1.47,2.45-3.96,3.92-6.87,3.92c-6.05,0-8.91-5.29-8.91-11.45
		c0-6.58,3.11-11.75,9.11-11.75c2.58,0,5.11,1.21,6.58,3.61v-11.92h2.98v30.89H262.77z M262,200.74c0-5.51-1.84-9.25-6.42-9.25
		c-4.13,0-6.29,3.57-6.29,8.91c0,5.51,2.41,8.78,6.17,8.78c4.29,0,6.54-3.79,6.54-8.35V200.74z"/>
	<path class="st1" d="M287.29,205.04c-0.65,4.22-3.96,6.88-8.62,6.88c-6.09,0-9.56-4.73-9.56-11.45c0-6.93,3.68-11.75,9.48-11.75
		c6.13,0,9.11,4.82,9.11,10.8c0,0.52-0.04,1.08-0.04,1.64h-15.53c0.08,4.43,2.29,8.13,6.54,8.13c3.31,0,5.11-1.68,5.68-4.26H287.29z
		 M284.68,198.63c-0.04-4.13-1.96-7.31-6.09-7.31c-3.88,0-6.21,2.97-6.42,7.31H284.68z"/>
</g>
</svg>
